# xmcd
#
# Track frame offsets:
#	150
#	3030
#	13127
#	24107
#	34052
#	45860
#	54880
#	65792
#	71782
#	80720
#	95385
#	103767
#	110280
#
# Disc length: 1670 seconds
#
# Revision: 0
# Processed by: cddbd v1.4PL0 Copyright (c) Steve Scherf et al.
# Submitted via: dBpowerAMP V4.0
#
DISCID=9806840d
DTITLE=The Dillards - Wheatstraw Suite
DYEAR=1968
DGENRE=Bluegrass
TTITLE0=I'll Fly Away
TTITLE1=Nobody Knows
TTITLE2=Hey Boys
TTITLE3=The Biggest Whatever
TTITLE4=Listen To The Sound
TTITLE5=Little Pete
TTITLE6=Reason To Believe
TTITLE7=Single Saddle
TTITLE8=I've Just Seen A Face
TTITLE9=Lemon Chimes
TTITLE10=Don't You Cry
TTITLE11=Bending The Strings
TTITLE12=She Sang Hymns Out Of Tune
EXTD=
EXTT0=
EXTT1=
EXTT2=
EXTT3=
EXTT4=
EXTT5=
EXTT6=
EXTT7=
EXTT8=
EXTT9=
EXTT10=
EXTT11=
EXTT12=
PLAYORDER=
